<svg xmlns="http://www.w3.org/2000/svg" id="export" class="canvas" preserveAspectRatio="xMidYMid meet" style="position: absolute; margin: 0px;" width="110" height="177"><rect id="background" fill="#fff" pointer-events="all" width="110" height="177"/><g id="origin" transform="translate(5, 5) scale(1)"><g id="clusters" class="clusters"/><g id="edge-paths" class="edge-paths"><defs><marker id="arrowhead-vee" viewBox="0 0 10 10" refX="9" refY="5" markerUnits="strokeWidth" markerWidth="8" markerHeight="6" orient="auto" style="fill: rgb(0, 0, 0);"><path d="M 0 0 L 10 5 L 0 10 L 4 5 z" style="stroke-width: 1; stroke-dasharray: 1, 0;"/></marker></defs><path class="edge-path" d="M50,21.000001907348633L50,24.500001907348633C50,28.000001907348633,50,35.00000190734863,50,42.00000190734863C50,49.00000190734863,50,56.00000190734863,50,59.50000190734863L50,63.00000190734863" marker-end="url(#arrowhead-vee)" id="edge-input_1" style="stroke: rgb(0, 0, 0); stroke-width: 1px; fill: none;"/><path class="edge-path" d="M50,103.00000190734863L50,106.50000190734863C50,110.00000190734863,50,117.00000190734863,50,124.00000190734863C50,131.00000190734863,50,138.00000190734863,50,141.50000190734863L50,145.00000190734863" marker-end="url(#arrowhead-vee)" id="edge-Identity" style="stroke: rgb(0, 0, 0); stroke-width: 1px; fill: none;"/></g><g id="edge-labels" class="edge-labels"><g class="edge-label" transform="translate(75.84375,42.00000190734863)" style="opacity: 1;"><g transform="translate(-20.84375,-6)"><text style="font-family: -apple-system, BlinkMacSystemFont, &quot;Segoe WPC&quot;, &quot;Segoe UI&quot;, Ubuntu, &quot;Droid Sans&quot;, sans-serif, &quot;PingFang SC&quot;; font-size: 10px;"><tspan xml:space="preserve" dy="1em" x="1">1×5×5×5</tspan></text></g></g><g class="edge-label" transform="translate(69.6484375,124.00000190734863)" style="opacity: 1;"><g transform="translate(-14.6484375,-6)"><text style="font-family: -apple-system, BlinkMacSystemFont, &quot;Segoe WPC&quot;, &quot;Segoe UI&quot;, Ubuntu, &quot;Droid Sans&quot;, sans-serif, &quot;PingFang SC&quot;; font-size: 10px;"><tspan xml:space="preserve" dy="1em" x="1">1×5×5</tspan></text></g></g></g><g id="nodes" class="nodes"><g id="node-1592056245839" class="node" transform="translate(50,83.00000190734863)" style="opacity: 1;"><g transform="translate(-50,-20)"><g><g class="node-item node-item-operator" transform="translate(0,0)"><path d="M5,0h90a5,5 0 0 1 5,5v16a0,0 0 0 1 0,0h-100a0,0 0 0 1 0,0v-16a5,5 0 0 1 5,-5z" style="stroke: rgb(0, 0, 0); fill: rgb(0, 0, 0); stroke-width: 0;"/><text x="6" y="15" style="font-family: -apple-system, BlinkMacSystemFont, &quot;Segoe WPC&quot;, &quot;Segoe UI&quot;, Ubuntu, &quot;Droid Sans&quot;, sans-serif, &quot;PingFang SC&quot;; font-size: 11px; text-rendering: geometricprecision; fill: rgb(255, 255, 255);">Mean</text></g><g class="node-attribute" transform="translate(0,21)"><path d="M0,0h100a0,0 0 0 1 0,0v14a5,5 0 0 1 -5,5h-90a5,5 0 0 1 -5,-5v-14a0,0 0 0 1 0,0z" style="stroke: rgb(0, 0, 0); fill: rgb(255, 255, 255); stroke-width: 0;"/><text id="initializer-my_model_2/reduction_mean_1/Mean/reduction_indices" xml:space="preserve" x="6" y="13" style="font-family: -apple-system, BlinkMacSystemFont, &quot;Segoe WPC&quot;, &quot;Segoe UI&quot;, Ubuntu, &quot;Droid Sans&quot;, sans-serif, &quot;PingFang SC&quot;; font-size: 9px; font-weight: normal; text-rendering: geometricprecision;"><title>int32</title><tspan>axis</tspan><tspan> = 2</tspan></text><line class="node" x1="0" x2="100" y1="0" y2="0" style="stroke: rgb(51, 51, 51); fill: none; stroke-width: 1px;"/></g><path class="node border" d="M5,0h90a5,5 0 0 1 5,5v30a5,5 0 0 1 -5,5h-90a5,5 0 0 1 -5,-5v-30a5,5 0 0 1 5,-5z" style="stroke: rgb(51, 51, 51); fill: none; stroke-width: 1px;"/></g></g></g><g class="node graph-input" transform="translate(50,10.500000953674316)" style="opacity: 1;"><g transform="translate(-23.7890625,-10.500000953674316)"><g><g class="node-item graph-item-input" transform="translate(0,0)"><path d="M5,0h37.578125a5,5 0 0 1 5,5v11a5,5 0 0 1 -5,5h-37.578125a5,5 0 0 1 -5,-5v-11a5,5 0 0 1 5,-5z" style="stroke: rgb(0, 0, 0); fill: rgb(238, 238, 238); stroke-width: 0;"/><text x="6" y="15" style="font-family: -apple-system, BlinkMacSystemFont, &quot;Segoe WPC&quot;, &quot;Segoe UI&quot;, Ubuntu, &quot;Droid Sans&quot;, sans-serif, &quot;PingFang SC&quot;; font-size: 11px; text-rendering: geometricprecision;">input_1</text><title>float32[1,5,5,5]</title></g><path class="node border" d="M5,0h37.578125a5,5 0 0 1 5,5v11a5,5 0 0 1 -5,5h-37.578125a5,5 0 0 1 -5,-5v-11a5,5 0 0 1 5,-5z" style="stroke: rgb(51, 51, 51); fill: none; stroke-width: 1px;"/></g></g></g><g class="node" transform="translate(50,155.55468940734863)" style="opacity: 1;"><g transform="translate(-25.6640625,-10.5546875)"><g><g class="node-item graph-item-output" transform="translate(0,0)"><path d="M5,0h41.328125a5,5 0 0 1 5,5v11.109375a5,5 0 0 1 -5,5h-41.328125a5,5 0 0 1 -5,-5v-11.109375a5,5 0 0 1 5,-5z" style="stroke: rgb(0, 0, 0); fill: rgb(238, 238, 238); stroke-width: 0;"/><text x="6" y="15" style="font-family: -apple-system, BlinkMacSystemFont, &quot;Segoe WPC&quot;, &quot;Segoe UI&quot;, Ubuntu, &quot;Droid Sans&quot;, sans-serif, &quot;PingFang SC&quot;; font-size: 11px; text-rendering: geometricprecision;">Identity</text><title>float32[1,5,5]</title></g><path class="node border" d="M5,0h41.328125a5,5 0 0 1 5,5v11.109375a5,5 0 0 1 -5,5h-41.328125a5,5 0 0 1 -5,-5v-11.109375a5,5 0 0 1 5,-5z" style="stroke: rgb(51, 51, 51); fill: none; stroke-width: 1px;"/></g></g></g></g></g></svg>